<svg width="1270" height="1241" viewBox="0 0 1270 1241" fill="none" xmlns="http://www.w3.org/2000/svg">
<g clip-path="url(#clip0_350_3085)">
<path d="M1003.77 200.78L1102.21 330.958L1169.89 548.532L1097.91 794.832L726.894 956.79L526.928 789.331L437.097 560.145L306.043 418.354L518.314 79.1584L705.359 21.709L875.791 79.1584L1003.77 200.78Z" fill="#FFDCCC"/>
<path d="M690.219 2.36914L677.545 24.8006C732.085 10.6279 789.21 18.3606 844.963 16.4388C843.99 28.2322 828.285 31.3207 822.463 40.3345C820.632 43.1598 817.933 42.4163 822.417 46.0081C881.475 57.1266 927.356 88.732 967.392 131.73C973.992 138.822 979.837 151.577 986.975 157.17C994.742 163.256 1011.61 168.884 1021.99 175.61C1050.45 194.083 1068.8 211.264 1086.39 240.628C1090.55 247.582 1101.09 274.2 1103.88 276.591C1107.62 279.783 1141.5 285.216 1151.03 288.522C1294.26 338.12 1298.18 504.921 1213.45 611.381C1205.09 621.882 1165.8 657.537 1164.26 660.671C1160.32 668.736 1163.99 688.227 1162.83 698.637C1150.57 809.33 1041.24 878.454 990.784 971.108C968.639 1011.78 969.405 1045.39 954.031 1086.27C872.919 1301.93 571.393 1280.82 496.778 1066.57C485.762 1034.93 486.734 995.736 477.698 970.296C474.792 962.129 440.762 919.84 432.835 911.055C427.95 905.644 403.483 880.09 399.079 880.113L341.37 913.892C341.771 856.377 330.343 802.043 307.191 749.722C302.41 738.924 283.479 699.277 276.81 692.894C272.269 688.547 224.535 674.592 212.856 669.628C83.2999 614.584 -29.6581 496.25 6.78585 344.4C21.0271 285.067 68.8527 224.19 126.824 202.788C172.934 185.756 219.684 193.214 265.154 207.535C305.841 127.338 384.609 70.3384 468.627 40.9865C539.89 16.0842 615.524 9.83867 690.219 2.36914ZM909.683 154.253C846.907 94.6229 745.011 75.9091 661.039 87.0962C652.631 88.2172 640.586 88.6519 633.986 93.7993C712.41 93.1931 785.824 113.074 841.165 170.714C863.15 162.638 885.559 153.087 909.683 154.253ZM493.3 278.078C428.339 422.779 548.687 543.561 695.858 511.624L646.603 556.567C590.621 620.224 553.342 726.467 558.044 811.194C559.199 832.036 569.105 857.636 569.482 875.949C569.894 895.91 558.879 926.2 557.895 948.963C552.736 1068.86 636.64 1183.57 766.355 1157.42C893.829 1131.72 877.266 1015.93 926.098 926.097C966.877 851.07 1060.4 781.716 1081.32 705.729C1099.11 641.111 1068.85 577.042 1023.63 531.31C1018.91 526.551 989.103 504.166 988.611 501.443C987.925 497.68 1020.63 470.833 1026.5 463.798C1063.98 418.89 1061.28 363.949 1040.49 311.891C1002.03 215.622 909.992 198.453 832.449 264.02C760.968 141.236 576.735 131.273 502.314 257.534C498.059 264.763 496.446 271.112 493.323 278.09L493.3 278.078ZM287.894 612.869C285.32 553.272 286.041 494.008 293.945 434.618C296.748 413.616 311.298 361.993 306.31 345.464C303.451 335.981 276.924 308.951 268.254 301.962C165.659 219.157 59.9762 317.828 83.8375 432.914C103.615 528.302 202.767 584.329 287.883 612.869H287.894ZM1129.16 365.287C1128.36 413.513 1120.05 462.574 1090.28 501.764C1096.82 511.452 1106.41 519.734 1112.9 529.217C1121.15 541.262 1127.62 558.5 1135.16 568.852C1142.25 578.552 1148.35 567.434 1153.97 560.342C1204.61 496.319 1210.72 404.58 1129.16 365.287Z" fill="#020303"/>
<path d="M493.53 278.012C490.441 349.516 505.243 419.647 569.712 459.248C616.714 488.119 681.663 497.019 735.483 489.046C669.435 552.703 592.83 660.044 655.297 750.617C722.866 660.044 840.502 584.354 957.761 617.012C1009.35 631.379 1060.9 675.464 1053.41 733.779C1058.63 739.624 1075.68 705.971 1081.53 705.662C1060.61 781.65 967.084 851.003 926.305 926.03C877.472 1015.86 894.047 1131.65 766.562 1157.36C636.846 1183.51 552.943 1068.81 558.102 948.897C559.085 926.122 570.101 895.843 569.689 875.883C569.312 857.569 559.406 831.969 558.25 811.128C553.549 726.412 590.828 620.157 646.809 556.5L696.065 511.557C548.893 543.495 428.557 422.712 493.507 278.012H493.53ZM872.714 650.161C774.066 661.291 672.821 774.341 642.543 864.513C614.369 948.45 608.718 1116.3 731.193 1122.17C830.711 1126.94 839.919 1017.12 865.61 949.72C895.202 872.096 942.021 830.539 991.426 768.873C1008.7 747.311 1021.92 735.014 1010.45 704.987C991.311 654.874 919.121 644.922 872.714 650.161Z" fill="#E08053"/>
<path d="M288.094 612.741C202.978 584.19 103.827 528.174 84.049 432.786C60.1877 317.689 165.859 219.03 268.465 301.835C277.136 308.836 303.662 335.865 306.522 345.337C311.509 361.877 296.948 413.5 294.157 434.491C286.241 493.869 285.532 553.145 288.105 612.741H288.094Z" fill="#E08053"/>
<path d="M1129.53 365.25C1211.09 404.542 1204.98 496.281 1154.34 560.304C1148.72 567.408 1142.61 578.526 1135.53 568.815C1127.98 558.463 1121.52 541.224 1113.27 529.179C1106.78 519.696 1097.19 511.415 1090.65 501.726C1120.42 462.537 1128.73 413.476 1129.53 365.25Z" fill="#E08053"/>
<path d="M600.093 348.363C600.779 351.761 603.788 356.153 601.66 359.562C599.693 362.696 584.959 370.68 580.372 375.061C572.022 383.057 566.268 392.551 558.696 401.027C557.529 402.331 556.774 408.874 552.313 404.619C546.273 398.865 545.77 346.544 546.948 335.998C554.875 264.814 627.489 206.053 699.141 222.594C781.672 241.651 824.625 339.773 790.034 415.909C788.33 419.661 786.019 427.051 781.569 421.526C774.306 412.501 772.395 386.146 757.651 382.131C804.424 301.407 694.326 216.646 618.681 298.021C604.028 313.784 595.838 327.327 600.093 348.363Z" fill="#E08053"/>
<path d="M878.825 382.066C878.196 386.848 880.357 394.649 878.218 398.366C876.365 401.581 855.181 411.51 856.279 421.45C852.012 424.515 848.5 402.53 848.237 399.991C844.314 362.941 857.4 322.138 887.507 299.307C962.82 242.216 1030.41 331.37 1025.22 406.076C1024.82 411.807 1019.05 441.639 1016.64 443.95C1012.27 448.137 1011.8 442.532 1010.37 440.335C1006.05 433.655 1005.04 422.914 996.987 418.636C1022.78 377.205 988.694 308.252 937.734 318.604C910.762 324.083 882.325 355.208 878.825 382.066Z" fill="#E08053"/>
<path d="M892.878 514.329H840.802C838.879 514.329 814.146 503.799 811.364 501.556C789.836 484.216 820.704 463.866 840.39 464.667C862.617 465.572 888.254 493.613 892.878 514.329Z" fill="#020303"/>
<path d="M971.694 542.434C966.784 543.727 966.063 540.363 963.248 538.234C952.26 529.924 913.048 499.686 940.849 487.474C961.245 478.512 974.498 528.414 971.683 542.434H971.694Z" fill="#020303"/>
<path d="M872.593 650.172C919.011 644.933 991.19 654.896 1010.33 704.998C1021.8 735.025 1008.58 747.321 991.305 768.883C941.889 830.55 895.07 872.107 865.489 949.731C839.798 1017.13 830.59 1126.95 731.072 1122.18C608.597 1116.3 614.248 948.461 642.422 864.523C672.689 774.351 773.933 661.302 872.593 650.172ZM771.966 984.184C761.614 943.336 736.837 900.395 704.454 873.022C701.686 870.689 686.861 858.403 684.745 860.405C668.937 918.285 634.986 1046.02 725.833 1057.03C802.187 1066.27 829.114 996.973 799.728 935.295C796.514 928.546 771.749 893.314 763.501 899.812C779.664 923.364 794.397 960.163 771.977 984.184H771.966Z" fill="#020303"/>
<path d="M771.968 984.255C794.388 960.233 779.654 923.435 763.491 899.882C771.739 893.385 796.504 928.616 799.718 935.365C829.104 997.043 802.166 1066.34 725.824 1057.1C634.977 1046.09 668.927 918.356 684.735 860.476C686.863 858.474 701.676 870.748 704.444 873.093C736.828 900.466 761.615 943.407 771.956 984.255H771.968Z" fill="#E08053"/>
<path d="M682.326 261.096C731.008 261.096 770.627 303.444 770.627 355.882C770.627 408.319 731.008 450.668 682.326 450.668C633.645 450.668 594.025 408.319 594.025 355.882C594.026 303.444 633.645 261.096 682.326 261.096Z" fill="black" stroke="#190000" stroke-width="2.64472"/>
<path d="M943.963 458.914C979.884 458.914 1009 426.01 1009 385.42C1009 344.83 979.884 311.926 943.963 311.926C908.042 311.926 878.922 344.83 878.922 385.42C878.922 426.01 908.042 458.914 943.963 458.914Z" fill="#020303"/>
<path d="M735.632 274.909C702.914 262.639 669.108 302.623 694.321 330.36C718.163 356.573 757.625 327.336 750.86 294.487L761.236 311.303C770.634 340.062 770.699 363.992 759.561 392.381C720.774 491.057 583.505 478.549 576.827 368.451C571.606 282.523 668.738 210.517 735.632 274.909Z" fill="#030404"/>
<path d="M984.797 327.814C970.069 321.462 951.6 330.816 948.315 346.805C941.071 382.003 991.606 392.249 997.849 353.919C998.154 352.091 997.893 352.613 997.849 351.743C997.784 350.329 998.089 348.632 997.849 347.392C1003.24 346.261 1002.44 349.916 1003.79 353.31C1013.25 376.848 1013.29 410.131 1000.02 432.233C994.847 440.848 974.507 459.317 965.305 463.864C920.405 486.031 875.874 452.987 871.676 406.128C866.15 344.456 930.673 276.344 984.797 327.814Z" fill="#030404"/>
<circle cx="724.338" cy="305.113" r="33.3416" fill="white"/>
<circle cx="977.424" cy="352.096" r="24.2485" fill="white"/>
</g>
<defs>
<clipPath id="clip0_350_3085">
<rect width="1270" height="1241" fill="white"/>
</clipPath>
</defs>
</svg>
