<svg width="1560" height="1241" viewBox="0 0 1560 1241" fill="none" xmlns="http://www.w3.org/2000/svg">
<g filter="url(#filter0_i_348_2964)">
<path d="M1462.08 1132.94C1388.51 1206.5 991.103 1188.59 951.919 1189.71C766.407 1195.04 311.906 1214.5 240.26 1201.71C150.703 1185.71 93.0179 1150.91 61.1444 1093.76C17.165 1014.9 21.1617 503.641 17.165 416.482C11.2019 286.442 168.409 180.454 240.262 165.4C307.521 151.308 577.432 148.875 756.013 165.401C991.368 185.124 1474.87 246.961 1518.05 368.505C1562.72 494.235 1550.04 1044.98 1462.08 1132.94Z" fill="#6B6B6B"/>
</g>
<path d="M1462.08 1132.94C1388.51 1206.5 991.103 1188.59 951.919 1189.71C766.407 1195.04 311.906 1214.5 240.26 1201.71C150.703 1185.71 93.0179 1150.91 61.1444 1093.76C17.165 1014.9 21.1617 503.641 17.165 416.482C11.2019 286.442 168.409 180.454 240.262 165.4C307.521 151.308 577.432 148.875 756.013 165.401C991.368 185.124 1474.87 246.961 1518.05 368.505C1562.72 494.235 1550.04 1044.98 1462.08 1132.94Z" stroke="#050507" stroke-width="33.584"/>
<path d="M1344.97 941.373L1454.73 949.321C1470.62 949.065 1476.59 964.306 1461.14 971.055L1344.64 961.859C1334.23 959.508 1334.99 943.996 1344.97 941.373Z" fill="#FEFEFE"/>
<path d="M1476.04 875.017C1473.18 877.895 1459.44 877.208 1454.77 877.064C1421.35 876.072 1387.64 869.851 1354.13 868.956C1346.78 867.596 1344.84 858.081 1348.37 852.467C1350.69 848.773 1363.95 849.605 1368.56 849.749C1402.51 850.74 1436.76 856.705 1470.78 857.873C1478.14 858.704 1480.5 870.555 1476.06 875.033L1476.04 875.017Z" fill="#FEFEFE"/>
<mask id="mask0_348_2964" style="mask-type:alpha" maskUnits="userSpaceOnUse" x="200" y="215" width="1110" height="935">
<path d="M301.438 237.43C335.859 227.596 558.314 233.332 634.122 237.43C846.178 248.892 1238.17 290.443 1269.53 363.434C1318.7 477.913 1276.44 903.565 1269.53 982.703C1262.61 1061.84 1214.98 1083.35 1185.78 1094.88C1156.58 1106.4 538.081 1136.37 395.173 1133.29C252.265 1130.22 258.413 1093.34 239.205 1051.85C219.996 1010.36 213.85 451.022 218.46 363.434C223.07 275.845 258.411 249.723 301.438 237.43Z" fill="#FFDCCC" stroke="#050507" stroke-width="32.2696"/>
</mask>
<g mask="url(#mask0_348_2964)">
<g filter="url(#filter1_i_348_2964)">
<g clip-path="url(#clip0_348_2964)">
<g clip-path="url(#clip1_348_2964)">
<rect x="74.3672" y="173.025" width="190.895" height="1037.83" fill="white"/>
<rect x="265.262" y="173.025" width="190.895" height="1037.83" fill="#FFFF00"/>
<rect x="456.156" y="173.025" width="190.895" height="1037.83" fill="#00FFFF"/>
<rect x="647.055" y="173.025" width="190.895" height="1037.83" fill="#00FF00"/>
<rect x="837.949" y="173.025" width="190.895" height="1037.83" fill="#FF00FF"/>
<rect x="1028.84" y="173.025" width="190.895" height="1037.83" fill="#FF0000"/>
<rect x="1219.74" y="173.025" width="190.895" height="1037.83" fill="#0000FF"/>
<rect x="74.3672" y="932.574" width="190.895" height="80.66" fill="#151FAB"/>
<rect x="265.262" y="932.574" width="190.895" height="80.66" fill="#181F1D"/>
<rect x="456.156" y="932.574" width="190.895" height="80.66" fill="#FF00FF"/>
<rect x="647.055" y="932.574" width="190.895" height="80.66" fill="#151515"/>
<rect x="837.949" y="932.574" width="190.895" height="80.66" fill="#00FFFF"/>
<rect x="1028.84" y="932.574" width="190.895" height="80.66" fill="#151515"/>
<rect x="1219.74" y="932.574" width="190.895" height="80.66" fill="white"/>
<rect x="74.3672" y="1013.23" width="223.159" height="859.029" fill="#253859"/>
<rect x="297.527" y="1013.23" width="221.815" height="859.029" fill="white"/>
<rect x="519.34" y="1013.23" width="223.159" height="859.029" fill="#3B2070"/>
<rect x="742.5" y="1013.23" width="223.159" height="859.029" fill="#1A191B"/>
<rect x="965.66" y="1013.23" width="221.815" height="859.029" fill="#151515"/>
<rect x="1187.48" y="1013.23" width="223.159" height="859.029" fill="black"/>
</g>
<rect x="71" y="185" width="1339" height="983" fill="white" fill-opacity="0.44"/>
</g>
</g>
</g>
<path d="M284.456 217.341C320.279 207.106 551.795 213.076 630.691 217.34C851.385 229.27 1259.35 272.513 1291.98 348.477C1343.15 467.619 1299.17 910.608 1291.98 992.969C1284.78 1075.33 1235.2 1097.72 1204.82 1109.71C1174.43 1121.71 530.739 1152.89 382.01 1149.69C233.281 1146.5 221.304 1068.23 213.093 1030.26C195.264 947.811 193.301 439.633 198.099 348.477C202.896 257.32 239.678 230.135 284.456 217.341Z" stroke="#050507" stroke-width="33.584"/>
<path d="M1357.32 863.117C1362.75 861.975 1434.22 867.876 1469.27 870.969" stroke="#050507" stroke-width="33.584" stroke-linecap="round"/>
<path d="M1357.32 909.524C1362.75 908.382 1434.22 914.282 1469.27 917.375" stroke="#050507" stroke-width="33.584" stroke-linecap="round"/>
<path d="M1067.18 9.03809C1082.15 9.03809 1093.59 20.5261 1093.59 33.8457C1093.59 47.1652 1082.15 58.6523 1067.18 58.6523C1052.21 58.6522 1040.77 47.1651 1040.77 33.8457C1040.77 20.5262 1052.21 9.03818 1067.18 9.03809Z" fill="#6B6B6B" stroke="#6B6B6B" stroke-width="17.5916"/>
<path d="M570.277 9.03809C585.252 9.03809 596.685 20.5261 596.685 33.8457C596.684 47.1652 585.252 58.6523 570.277 58.6523C555.303 58.6522 543.87 47.1651 543.87 33.8457C543.87 20.5262 555.303 9.03818 570.277 9.03809Z" fill="#6B6B6B" stroke="#6B6B6B" stroke-width="17.5916"/>
<path d="M1060.88 42.3747C1049.36 49.4113 924.942 149.79 864.171 199.1L570.711 36.7773" stroke="#6B6B6B" stroke-width="33.584" stroke-linecap="round"/>
<path d="M1350.98 955.932C1356.41 954.79 1427.88 960.69 1462.93 963.783" stroke="#050507" stroke-width="33.584" stroke-linecap="round"/>
<path d="M1420.46 647.587C1446.71 647.587 1470.83 671.714 1470.83 705.159C1470.83 738.604 1446.71 762.732 1420.46 762.732C1394.2 762.732 1370.08 738.604 1370.08 705.159C1370.08 671.714 1394.2 647.587 1420.46 647.587Z" fill="#D9D9D9" stroke="#050507" stroke-width="33.584"/>
<path d="M1426.8 434.864C1453.06 434.864 1477.18 458.991 1477.18 492.437C1477.18 525.882 1453.06 550.01 1426.8 550.01C1400.55 550.01 1376.42 525.882 1376.42 492.437C1376.42 458.991 1400.55 434.864 1426.8 434.864Z" fill="#D9D9D9" stroke="#050507" stroke-width="33.584"/>
<path d="M818.276 291.556C828.383 290.704 838.383 290.432 848.165 290.404C870.262 290.342 889.109 291.422 909.516 290.719L928.053 290.079L926.528 308.564C926.163 312.991 924.772 316.678 922.967 319.71C957.653 331.655 985.985 352.958 1010.71 379.164L1012.16 380.721L1012.17 380.724C1015.77 384.595 1019.05 389.848 1020.87 392.584C1022 394.272 1022.87 395.526 1023.65 396.509C1024.29 397.319 1024.63 397.642 1024.68 397.691C1025.72 398.503 1028.28 399.844 1033.58 402.3C1037.62 404.173 1043.4 406.77 1048.24 409.771L1049.2 410.377L1049.21 410.382C1071.82 425.058 1087.26 439.402 1101.72 463.539L1101.72 463.544C1103.02 465.703 1104.43 468.681 1105.57 471.158C1106.8 473.844 1108.19 476.978 1109.43 479.753C1110.29 481.665 1111.08 483.412 1111.78 484.914C1113.97 485.45 1116.65 486.041 1119.62 486.678C1126.12 488.07 1135.72 489.984 1140.49 491.637C1199.43 512.048 1230.35 557.296 1237.22 608.012C1243.99 657.92 1227.53 712.574 1193.89 754.852L1193.88 754.855C1189.93 759.818 1180.07 769.306 1172.44 776.628C1168.32 780.586 1164.51 784.225 1161.62 787.051C1161 787.661 1160.45 788.211 1159.96 788.698C1159.91 789.933 1159.93 791.499 1160.01 793.478C1160.06 794.689 1160.12 795.924 1160.19 797.27C1160.25 798.576 1160.32 799.993 1160.37 801.387C1160.46 804.02 1160.52 807.359 1160.17 810.538C1155.1 856.275 1130.02 892.492 1103.79 924.339C1076.57 957.389 1049.32 984.705 1031.77 1016.92L1031.78 1016.92C1024.65 1030.01 1021.12 1042.04 1017.95 1055.18C1014.83 1068.06 1011.82 1083.24 1005.71 1099.5L1005.71 1099.5C973.084 1186.24 895.613 1225.53 819.515 1221.44C743.693 1217.36 668.354 1170.25 638.536 1084.63L638.535 1084.63C633.852 1071.18 631.841 1056.53 630.205 1044.29C628.498 1031.53 627.228 1021.88 624.77 1014.61C624.674 1014.44 624.526 1014.2 624.314 1013.86C623.649 1012.79 622.673 1011.35 621.396 1009.54C618.858 1005.96 615.512 1001.53 611.956 996.95C604.756 987.684 597.349 978.692 594.86 975.934V975.933C593.317 974.223 588.179 968.798 583.08 963.851C582.399 963.19 581.736 962.555 581.099 961.952L548.206 981.205L523.17 995.86L523.372 966.851C523.65 926.93 515.739 889.301 499.657 852.957C498.036 849.295 493.811 840.302 489.405 831.682C487.203 827.372 485.049 823.342 483.218 820.199C482.487 818.946 481.919 818.034 481.512 817.398C480.838 817.122 480.017 816.8 479.041 816.432C475.473 815.086 470.77 813.478 465.653 811.772C456.157 808.608 444.049 804.752 438.942 802.582V802.583C340.809 760.89 248.235 667.894 277.859 544.457V544.456C289.41 496.336 327.874 446.651 376.435 428.724C410.636 416.091 444.565 419.697 475.753 428.126C509.463 370.878 567.525 330.798 627.98 309.678L630.543 308.794C684.419 290.44 741.255 285.79 794.684 280.447L826.342 277.281L818.276 291.556ZM1029.71 697.333C1029.82 697.439 1029.58 697.2 1028.68 696.439C1027.88 695.763 1026.84 694.91 1025.6 693.902C1023.04 691.826 1020.17 689.544 1017.04 687.02C1014.06 684.618 1010.96 682.091 1008.54 679.987C1007.36 678.962 1006.1 677.82 1005.02 676.728C1004.5 676.205 1003.75 675.415 1003.01 674.47C1002.64 673.998 1002.08 673.24 1001.51 672.266C1001.06 671.494 999.955 669.492 999.449 666.69V666.689C998.401 660.886 1000.72 656.442 1001.12 655.646C1001.92 654.059 1002.83 652.79 1003.41 652.017C1004.64 650.398 1006.11 648.814 1007.38 647.505C1010.01 644.791 1013.43 641.606 1016.68 638.64C1020.22 635.399 1023.17 632.767 1026.13 630.048C1027.52 628.777 1028.67 627.693 1029.58 626.814C1030.58 625.837 1030.91 625.462 1030.87 625.513L1030.87 625.509C1053 598.999 1052.6 565.833 1038.5 530.529C1025.96 499.152 1005.8 482.911 984.633 478.323C963.209 473.68 937.116 480.188 911.538 501.815L896.521 514.515L886.625 497.518C839.775 417.044 720.076 411.957 672.406 492.817L672.407 492.818C671.47 494.411 670.756 496.007 669.922 498.123C669.209 499.932 667.986 503.289 666.639 506.3L665.572 508.681C645.565 555.295 655.195 596.053 679.731 622.978C705.049 650.758 748.034 665.736 796.972 655.116L856.867 642.118L811.593 683.43L776.075 715.836C738.055 759.512 712.435 832.939 715.632 890.554V890.555C715.959 896.462 717.578 903.466 719.635 912.174C721.471 919.949 723.881 929.885 724.063 938.732C724.263 948.424 721.765 959.73 719.811 968.664C717.617 978.688 715.819 986.838 715.532 993.456L715.533 993.457C713.801 1033.71 727.098 1072.45 750.726 1098.57C773.911 1124.19 807.378 1138.22 849.035 1129.82L850.971 1129.42C870.761 1125.14 884.147 1117.69 893.919 1108.63C904.146 1099.16 911.383 1087.04 917.439 1072.35C923.627 1057.35 928.058 1041.13 933.636 1022.89C939.059 1005.15 945.42 986.11 955.233 968.058C971.302 938.494 997.685 910.143 1019.74 884.453C1042.87 857.514 1061.36 833.419 1067.93 809.556C1078.84 769.939 1060.69 728.665 1029.71 697.333ZM430.241 511.067C416.788 510.733 404.265 515.275 393.713 523.627C372.398 540.498 359.08 573.254 366.704 610.027C372.937 640.09 391.813 664.806 417.671 684.932C437.203 700.134 460.199 712.284 483.277 721.685C482.534 685.453 483.779 649.064 488.651 612.453V612.448C489.749 604.225 493.296 589.021 495.493 577.528C496.698 571.226 497.64 565.463 498.086 560.736C498.428 557.108 498.362 555.103 498.312 554.277C498.039 553.853 497.515 553.063 496.602 551.862C494.793 549.484 492.321 546.591 489.541 543.555C483.831 537.319 478.008 531.764 475.765 529.956L475.757 529.949C459.272 516.644 443.684 511.402 430.241 511.067ZM1133.52 594.224C1130.64 617.823 1124.19 641.657 1111.01 663.093L1113.26 665.593C1115.44 668.042 1117.88 670.903 1120.08 673.998L1120.67 674.848L1120.67 674.853C1124.03 679.75 1126.93 685.39 1129.29 690.058C1142.64 670.61 1149.36 648.811 1148.11 629.615C1147.26 616.68 1142.82 604.454 1133.52 594.224ZM1107.93 483.856C1107.53 483.68 1107.46 483.69 1107.91 483.852C1107.92 483.854 1107.93 483.854 1107.93 483.856ZM897.565 389.829C902.282 393.441 906.885 397.323 911.363 401.487C913.293 400.774 915.283 400.051 917.33 399.341C911.02 395.797 904.408 392.628 897.565 389.829Z" fill="#020303" stroke="#6B6B6B" stroke-width="33"/>
<path d="M1026.83 442.727L1099.2 538.427L1148.96 698.375L1096.04 879.44L823.288 998.503L676.285 875.397L610.246 706.912L513.902 602.676L669.952 353.318L807.457 311.084L932.749 353.318L1026.83 442.727Z" fill="#FFDCCC"/>
<path d="M796.325 296.865L787.008 313.356C827.103 302.937 869.098 308.621 910.084 307.208C909.369 315.878 897.824 318.149 893.543 324.775C892.198 326.852 890.213 326.306 893.51 328.946C936.926 337.12 970.655 360.354 1000.09 391.964C1004.94 397.178 1009.24 406.554 1014.48 410.666C1020.19 415.14 1032.6 419.277 1040.22 424.222C1061.15 437.803 1074.63 450.433 1087.57 472.02C1090.63 477.132 1098.37 496.7 1100.43 498.458C1103.18 500.804 1128.08 504.798 1135.09 507.229C1240.38 543.691 1243.26 666.313 1180.98 744.577C1174.83 752.297 1145.94 778.508 1144.82 780.812C1141.92 786.74 1144.62 801.07 1143.77 808.722C1134.75 890.097 1054.38 940.914 1017.28 1009.03C1001 1038.93 1001.57 1063.64 990.265 1093.69C930.636 1252.23 708.971 1236.71 654.118 1079.2C646.02 1055.94 646.735 1027.13 640.091 1008.43C637.956 1002.43 612.938 971.338 607.111 964.88C603.52 960.903 585.533 942.116 582.295 942.133L539.871 966.966C540.166 924.684 531.765 884.741 514.745 846.277C511.23 838.339 497.312 809.193 492.41 804.501C489.071 801.305 453.98 791.046 445.394 787.396C350.152 746.932 267.112 659.939 293.903 548.307C304.373 504.689 339.531 459.936 382.149 444.202C416.046 431.681 450.415 437.164 483.841 447.692C513.752 388.735 571.658 346.832 633.423 325.255C685.812 306.948 741.413 302.356 796.325 296.865ZM957.663 408.522C911.514 364.685 836.605 350.928 774.873 359.152C768.693 359.976 759.838 360.295 754.986 364.08C812.639 363.634 866.609 378.249 907.292 420.623C923.455 414.686 939.928 407.664 957.663 408.522ZM651.562 499.551C603.806 605.927 692.279 694.719 800.471 671.241L764.261 704.28C723.107 751.077 695.701 829.182 699.157 891.468C700.007 906.79 707.289 925.609 707.567 939.072C707.869 953.746 699.771 976.014 699.048 992.748C695.256 1080.89 756.937 1165.22 852.296 1146C946.008 1127.1 933.832 1041.98 969.73 975.938C999.709 920.782 1068.46 869.798 1083.84 813.936C1096.92 766.432 1074.68 719.333 1041.43 685.713C1037.96 682.215 1016.05 665.758 1015.69 663.757C1015.18 660.99 1039.22 641.254 1043.54 636.082C1071.09 603.068 1069.11 562.679 1053.82 524.409C1025.55 453.637 957.89 441.015 900.885 489.216C848.336 398.952 712.898 391.628 658.188 484.448C655.06 489.763 653.874 494.43 651.578 499.559L651.562 499.551ZM500.558 745.67C498.666 701.859 499.196 658.291 505.007 614.63C507.067 599.191 517.764 561.241 514.097 549.089C511.995 542.118 492.494 522.247 486.12 517.109C410.698 456.236 333.006 528.773 350.547 613.377C365.087 683.501 437.977 724.689 500.55 745.67H500.558ZM1119.01 563.662C1118.42 599.115 1112.32 635.182 1090.43 663.992C1095.24 671.115 1102.28 677.203 1107.06 684.174C1113.12 693.029 1117.87 705.701 1123.42 713.312C1128.63 720.443 1133.12 712.269 1137.25 707.055C1174.48 659.989 1178.97 592.548 1119.01 563.662Z" fill="#020303"/>
<path d="M651.733 499.502C649.463 552.068 660.344 603.624 707.738 632.737C742.292 653.961 790.039 660.504 829.604 654.642C781.049 701.439 724.733 780.351 770.656 846.935C820.328 780.351 906.808 724.708 993.01 748.716C1030.94 759.278 1068.84 791.686 1063.33 834.556C1067.16 838.853 1079.7 814.114 1084 813.887C1068.62 869.749 999.864 920.733 969.885 975.889C933.987 1041.93 946.171 1127.05 852.451 1145.95C757.092 1165.17 695.41 1080.85 699.203 992.699C699.926 975.956 708.024 953.697 707.721 939.023C707.444 925.56 700.162 906.741 699.312 891.419C695.856 829.141 723.262 751.028 764.416 704.231L800.626 671.192C692.434 694.67 603.969 605.878 651.717 499.502H651.733ZM930.488 773.085C857.968 781.268 783.538 864.375 761.279 930.665C740.568 992.371 736.414 1115.77 826.45 1120.08C899.61 1123.59 906.379 1042.85 925.266 993.304C947.021 936.24 981.439 905.689 1017.76 860.356C1030.46 844.504 1040.18 835.465 1031.74 813.39C1017.67 776.55 964.604 769.234 930.488 773.085Z" fill="#E08053"/>
<path d="M500.703 745.578C438.131 724.589 365.24 683.409 350.701 613.285C333.159 528.673 410.843 456.144 486.273 517.017C492.647 522.164 512.148 542.035 514.251 548.998C517.917 561.157 507.212 599.108 505.16 614.538C499.341 658.19 498.82 701.767 500.712 745.578H500.703Z" fill="#E08053"/>
<path d="M1119.28 563.635C1179.24 592.52 1174.75 659.962 1137.52 707.028C1133.39 712.25 1128.9 720.423 1123.7 713.284C1118.15 705.674 1113.4 693.001 1107.33 684.146C1102.56 677.175 1095.51 671.087 1090.7 663.964C1112.59 635.155 1118.69 599.088 1119.28 563.635Z" fill="#E08053"/>
<path d="M730.066 551.223C730.57 553.721 732.782 556.95 731.218 559.456C729.771 561.76 718.94 567.629 715.568 570.85C709.429 576.728 705.2 583.708 699.633 589.939C698.775 590.897 698.22 595.707 694.94 592.579C690.5 588.349 690.13 549.886 690.997 542.133C696.824 489.803 750.205 446.605 802.88 458.764C863.552 472.774 895.129 544.908 869.7 600.879C868.447 603.637 866.748 609.07 863.477 605.008C858.137 598.373 856.733 578.998 845.893 576.047C880.278 516.703 799.34 454.392 743.73 514.214C732.958 525.802 726.937 535.759 730.066 551.223Z" fill="#E08053"/>
<path d="M934.977 575.998C934.515 579.513 936.104 585.248 934.532 587.981C933.169 590.344 917.596 597.643 918.403 604.95C915.266 607.204 912.685 591.042 912.491 589.175C909.607 561.938 919.227 531.942 941.36 515.157C996.726 473.187 1046.42 538.728 1042.6 593.648C1042.3 597.861 1038.07 619.793 1036.29 621.491C1033.08 624.569 1032.73 620.448 1031.68 618.834C1028.5 613.923 1027.76 606.027 1021.84 602.882C1040.81 572.424 1015.75 521.733 978.284 529.344C958.456 533.372 937.55 556.253 934.977 575.998Z" fill="#E08053"/>
<path d="M945.309 673.23H907.026C905.612 673.23 887.43 665.489 885.385 663.84C869.559 651.093 892.251 636.133 906.723 636.722C923.063 637.387 941.91 658.001 945.309 673.23Z" fill="#020303"/>
<path d="M1003.25 693.891C999.639 694.842 999.109 692.368 997.039 690.803C988.961 684.695 960.135 662.465 980.573 653.487C995.566 646.899 1005.31 683.584 1003.24 693.891H1003.25Z" fill="#020303"/>
<path d="M930.397 773.095C964.521 769.244 1017.58 776.568 1031.65 813.4C1040.09 835.474 1030.37 844.514 1017.67 860.365C981.34 905.699 946.921 936.249 925.175 993.314C906.288 1042.86 899.519 1123.6 826.359 1120.09C736.322 1115.77 740.476 992.381 761.188 930.674C783.439 864.385 857.868 781.277 930.397 773.095ZM856.422 1018.64C848.811 988.613 830.597 957.045 806.791 936.922C804.756 935.207 793.858 926.175 792.302 927.647C780.68 970.197 755.722 1064.1 822.508 1072.19C878.639 1078.99 898.434 1028.04 876.831 982.702C874.468 977.74 856.262 951.84 850.199 956.616C862.081 973.931 872.912 1000.98 856.43 1018.64H856.422Z" fill="#020303"/>
<path d="M856.422 1018.69C872.904 1001.03 862.073 973.983 850.191 956.668C856.254 951.892 874.46 977.792 876.823 982.753C898.426 1028.1 878.623 1079.04 822.5 1072.24C755.714 1064.15 780.673 970.249 792.294 927.699C793.858 926.227 804.748 935.25 806.783 936.974C830.589 957.097 848.812 988.665 856.414 1018.69H856.422Z" fill="#E08053"/>
<path d="M790.522 487.067C826.31 487.067 855.436 518.2 855.437 556.749C855.437 595.298 826.31 626.431 790.522 626.431C754.735 626.431 725.608 595.298 725.608 556.749C725.609 518.2 754.735 487.067 790.522 487.067Z" fill="black" stroke="#190000" stroke-width="1.94425"/>
<path d="M982.865 632.491C1009.27 632.491 1030.68 608.302 1030.68 578.462C1030.68 548.623 1009.27 524.434 982.865 524.434C956.458 524.434 935.051 548.623 935.051 578.462C935.051 608.302 956.458 632.491 982.865 632.491Z" fill="#020303"/>
<path d="M829.709 497.222C805.657 488.202 780.805 517.596 799.34 537.986C816.867 557.257 845.878 535.763 840.904 511.615L848.532 523.977C855.441 545.119 855.489 562.711 847.301 583.581C818.786 656.122 717.875 646.926 712.965 565.989C709.127 502.819 780.533 449.884 829.709 497.222Z" fill="#030404"/>
<path d="M1012.88 536.114C1002.05 531.444 988.477 538.321 986.062 550.075C980.736 575.951 1017.89 583.483 1022.48 555.305C1022.7 553.961 1022.51 554.345 1022.48 553.705C1022.43 552.666 1022.65 551.418 1022.48 550.507C1026.44 549.675 1025.85 552.362 1026.84 554.857C1033.8 572.16 1033.83 596.629 1024.08 612.877C1020.27 619.21 1005.32 632.788 998.552 636.13C965.544 652.426 932.807 628.134 929.721 593.686C925.659 548.348 973.092 498.276 1012.88 536.114Z" fill="#030404"/>
<circle cx="821.405" cy="519.427" r="24.5109" fill="white"/>
<circle cx="1007.46" cy="553.965" r="17.8261" fill="white"/>
<defs>
<filter id="filter0_i_348_2964" x="0.207031" y="137.109" width="1559.75" height="1085.67" filterUnits="userSpaceOnUse" color-interpolation-filters="sRGB">
<feFlood flood-opacity="0" result="BackgroundImageFix"/>
<feBlend mode="normal" in="SourceGraphic" in2="BackgroundImageFix" result="shape"/>
<feColorMatrix in="SourceAlpha" type="matrix" values="0 0 0 0 0 0 0 0 0 0 0 0 0 0 0 0 0 0 127 0" result="hardAlpha"/>
<feOffset dx="89.5573" dy="-33.584"/>
<feComposite in2="hardAlpha" operator="arithmetic" k2="-1" k3="1"/>
<feColorMatrix type="matrix" values="0 0 0 0 0 0 0 0 0 0 0 0 0 0 0 0 0 0 0.25 0"/>
<feBlend mode="normal" in2="shape" result="effect1_innerShadow_348_2964"/>
</filter>
<filter id="filter1_i_348_2964" x="71.0234" y="185.162" width="1375.55" height="1002.84" filterUnits="userSpaceOnUse" color-interpolation-filters="sRGB">
<feFlood flood-opacity="0" result="BackgroundImageFix"/>
<feBlend mode="normal" in="SourceGraphic" in2="BackgroundImageFix" result="shape"/>
<feColorMatrix in="SourceAlpha" type="matrix" values="0 0 0 0 0 0 0 0 0 0 0 0 0 0 0 0 0 0 127 0" result="hardAlpha"/>
<feOffset dx="87.9581" dy="91.1566"/>
<feGaussianBlur stdDeviation="3.19848"/>
<feComposite in2="hardAlpha" operator="arithmetic" k2="-1" k3="1"/>
<feColorMatrix type="matrix" values="0 0 0 0 1 0 0 0 0 1 0 0 0 0 1 0 0 0 0.55 0"/>
<feBlend mode="normal" in2="shape" result="effect1_innerShadow_348_2964"/>
</filter>
<clipPath id="clip0_348_2964">
<rect x="71.0234" y="185.162" width="1369.15" height="996.445" rx="109.62" fill="white"/>
</clipPath>
<clipPath id="clip1_348_2964">
<rect width="1336.27" height="1037.83" fill="white" transform="translate(74.3672 173.025)"/>
</clipPath>
</defs>
</svg>
